#!OML:ASF X:\für Bonn\!DataBase\2005_08_12_Daniel\c3d\Daniel.ASF
:FULLY-SPECIFIED
:DEGREES
2054
root -2.72326 17.2267 -0.438234 -4.61211 -69.946 -27.1306
lowerback 56.1276 -12.915 -14.3621
upperback 14.7749 -26.5066 -1.6197
thorax 0.489925 -15.3526 13.0407
lowerneck 13.4353 13.3262 -1.18246
upperneck 8.12224 16.5308 4.85428
head -0.113934 7.77764 0.970922
rclavicle -3.97569e-015 5.40694e-014
rhumerus -56.7834 2.36925 -68.8133
rradius 21.7884
rwrist 26.005
rhand -29.487 39.4835
rfingers 7.12502
rthumb -2.82203 9.52242
lclavicle -3.97569e-015 5.40694e-014
lhumerus 52.2836 -1.83072 81.4906
lradius 128.824
lwrist 55.7939
lhand -10.5701 -14.0801
lfingers 7.12502
lthumb 15.4345 15.3236
rfemur -91.8895 -20.2053 31.7786
rtibia 131.547
rfoot 1.18515 6.41849
rtoes -11.5093
lfemur 14.954 -15.3274 -18.8969
ltibia 29.5548
lfoot -15.7507 3.35732
ltoes 2.1179
2055
root -2.71519 17.2291 -0.420373 -3.98085 -70.3449 -27.6545
lowerback 56.0249 -12.8757 -14.2203
upperback 14.7441 -26.3743 -1.60701
thorax 0.394045 -15.2661 12.9899
lowerneck 13.4781 13.3278 -1.33936
upperneck 8.06143 16.5179 4.84241
head -0.152303 7.76716 0.984346
rclavicle -3.10104e-014 0
rhumerus -56.5562 1.67637 -67.9852
rradius 21.0441
rwrist 27.1097
rhand -29.8383 39.795
rfingers 7.12502
rthumb -3.16131 9.83871
lclavicle -3.10104e-014 0
lhumerus 51.3273 -1.62158 81.8228
lradius 129.189
lwrist 55.8849
lhand -10.9114 -13.9777
lfingers 7.12502
lthumb 15.1058 15.4511
rfemur -92.0703 -20.4412 32.0177
rtibia 131.507
rfoot 1.48581 6.52379
rtoes -11.1413
lfemur 14.8928 -15.1988 -18.8491
ltibia 29.5906
lfoot -15.8941 3.62704
ltoes 2.239
2056
root -2.7108 17.2276 -0.402109 -3.56287 -70.7494 -27.9099
lowerback 55.8 -12.8131 -14.146
upperback 14.7306 -26.2327 -1.59313
thorax 0.351995 -15.1845 12.9448
lowerneck 13.448 13.314 -1.46433
upperneck 8.05376 16.4888 4.79262
head -0.155514 7.75247 0.990136
rclavicle -5.725e-014 -1.7175e-013
rhumerus -56.2977 0.893683 -67.0478
rradius 20.4456
rwrist 28.4386
rhand -30.4217 39.9733
rfingers 7.12502
rthumb -3.7247 10.0261
lclavicle -5.725e-014 -1.7175e-013
lhumerus 50.4826 -1.42736 82.2812
lradius 129.541
lwrist 55.9851
lhand -11.1708 -13.6715
lfingers 7.12502
lthumb 14.856 15.7759
rfemur -92.0743 -20.7868 32.0579
rtibia 131.402
rfoot 1.80476 6.79146
rtoes -10.3688
lfemur 14.7658 -15.1054 -18.9295
ltibia 29.7136
lfoot -16.1124 3.93665
ltoes 2.26405
2057
root -2.70851 17.2222 -0.381555 -3.20057 -71.1631 -28.0466
lowerback 55.4458 -12.7614 -14.082
upperback 14.7331 -26.0886 -1.58343
thorax 0.344122 -15.1045 12.8862
lowerneck 13.3371 13.2797 -1.55281
upperneck 8.10726 16.437 4.71722
head -0.12036 7.72996 0.992341
rclavicle -7.07673e-014 -5.08889e-014
rhumerus -56.0616 0.211329 -66.2179
rradius 20.0922
rwrist 29.5711
rhand -31.0727 39.9887
rfingers 7.12502
rthumb -4.35333 10.0535
lclavicle -7.07673e-014 -5.08889e-014
lhumerus 49.7407 -1.19985 82.7936
lradius 129.812
lwrist 56.109
lhand -11.3477 -13.256
lfingers 7.12502
lthumb 14.6855 16.2039
rfemur -91.8732 -21.2078 31.9752
rtibia 131.203
rfoot 2.08896 7.22024
rtoes -9.94872
lfemur 14.5359 -15.0293 -19.0755
ltibia 29.9365
lfoot -16.3769 4.30096
ltoes 2.35634
2058
root -2.70769 17.2099 -0.361152 -2.7408 -71.6018 -28.2868
lowerback 55.081 -12.6789 -14.0099
upperback 14.7248 -25.9019 -1.53335
thorax 0.332295 -15.0071 12.8553
lowerneck 13.0972 13.2079 -1.553
upperneck 8.24464 16.3488 4.59051
head -0.0252107 7.69598 0.98097
rclavicle 6.04305e-014 -2.8625e-014
rhumerus -55.7822 -0.444565 -65.4253
rradius 19.8623
rwrist 30.4092
rhand -31.7085 40.0213
rfingers 7.12502
rthumb -4.96725 10.0995
lclavicle 6.04305e-014 -2.8625e-014
lhumerus 48.997 -0.966408 83.2854
lradius 130.037
lwrist 56.2376
lhand -11.5314 -12.9335
lfingers 7.12502
lthumb 14.5085 16.5392
rfemur -91.3687 -21.5999 31.7996
rtibia 130.864
rfoot 2.37699 7.7116
rtoes -10.1841
lfemur 14.2885 -14.9629 -19.1972
ltibia 30.2089
lfoot -16.6846 4.6569
ltoes 2.44164
2059
root -2.7052 17.2009 -0.340561 -2.07989 -72.0792 -28.6531
lowerback 54.6314 -12.6159 -13.9109
upperback 14.7111 -25.7083 -1.47831
thorax 0.317637 -14.9018 12.8156
lowerneck 12.7297 13.1127 -1.45552
upperneck 8.47613 16.2426 4.39468
head 0.134081 7.65888 0.948899
rclavicle 3.97569e-015 -6.36111e-015
rhumerus -55.4772 -0.868528 -64.9203
rradius 19.8962
rwrist 30.6313
rhand -32.2088 39.8794
rfingers 7.12502
rthumb -5.45032 9.96945
lclavicle 3.97569e-015 -6.36111e-015
lhumerus 48.2314 -0.626985 83.6604
lradius 130.172
lwrist 56.4287
lhand -11.5904 -12.708
lfingers 7.12502
lthumb 14.4517 16.7688
rfemur -90.6017 -21.8333 31.5215
rtibia 130.344
rfoot 2.59657 8.21451
rtoes -10.9204
lfemur 13.9564 -14.9137 -19.2889
ltibia 30.4882
lfoot -17.0075 5.05434
ltoes 2.60811
2060
root -2.70042 17.1998 -0.322233 -1.34834 -72.6043 -29.0122
lowerback 54.0671 -12.5374 -13.806
upperback 14.6941 -25.4725 -1.44137
thorax 0.295253 -14.7672 12.7407
lowerneck 12.3217 12.9884 -1.28658
upperneck 8.77199 16.1019 4.21414
head 0.323572 7.6057 0.91811
rclavicle -9.38264e-014 3.81667e-014
rhumerus -55.224 -1.031 -64.7927
rradius 20.18
rwrist 30.0735
rhand -32.6187 39.7522
rfingers 7.12502
rthumb -5.8461 9.85282
lclavicle -9.38264e-014 3.81667e-014
lhumerus 47.4188 -0.333467 83.9582
lradius 130.261
lwrist 56.5841
lhand -11.6372 -12.5894
lfingers 7.12502
lthumb 14.4066 16.8906
rfemur -89.6582 -21.8926 31.1054
rtibia 129.67
rfoot 2.84455 8.68
rtoes -11.7187
lfemur 13.5586 -14.8263 -19.3671
ltibia 30.7233
lfoot -17.3045 5.50184
ltoes 2.65025
2061
root -2.69372 17.2022 -0.307319 -0.491258 -73.161 -29.4518
lowerback 53.4733 -12.4606 -13.7029
upperback 14.641 -25.2302 -1.41906
thorax 0.230658 -14.6155 12.6569
lowerneck 11.9674 12.8941 -1.2423
upperneck 9.0263 15.9843 4.15217
head 0.469012 7.55719 0.932078
rclavicle 2.8625e-014 2.70347e-014
rhumerus -55.009 -0.898942 -65.0073
rradius 20.742
rwrist 28.796
rhand -32.8263 39.4968
rfingers 7.12502
rthumb -6.04652 9.60309
lclavicle 2.8625e-014 2.70347e-014
lhumerus 46.5614 -0.0115826 84.2122
lradius 130.314
lwrist 56.728
lhand -11.5979 -12.469
lfingers 7.12502
lthumb 14.4444 17.0083
rfemur -88.5509 -21.7788 30.6134
rtibia 128.865
rfoot 3.06608 9.03771
rtoes -12.4933
lfemur 13.1406 -14.7224 -19.3974
ltibia 30.8957
lfoot -17.6098 5.92063
ltoes 2.67521
2062
root -2.6871 17.2075 -0.294364 0.463572 -73.7149 -29.9421
lowerback 52.802 -12.391 -13.6062
upperback 14.5964 -24.9874 -1.39348
thorax 0.19353 -14.4668 12.5677
lowerneck 11.6027 12.8089 -1.22785
upperneck 9.27468 15.8783 4.06824
head 0.613017 7.51376 0.943636
rclavicle 5.725e-014 -1.59028e-015
rhumerus -54.8015 -0.378321 -65.6426
rradius 21.6411
rwrist 26.785
rhand -32.9889 39.1336
rfingers 7.12502
rthumb -6.20348 9.24444
lclavicle 5.725e-014 -1.59028e-015
lhumerus 45.7575 0.318453 84.4516
lradius 130.318
lwrist 56.7749
lhand -11.5068 -12.3326
lfingers 7.12502
lthumb 14.5322 17.1384
rfemur -87.3185 -21.5894 30.0404
rtibia 127.937
rfoot 3.27181 9.30441
rtoes -13.2745
lfemur 12.687 -14.6192 -19.4043
ltibia 31.0215
lfoot -17.8541 6.36619
ltoes 2.70683
